<mxfile host="app.diagrams.net" modified="2023-08-06T16:55:46.157Z" agent="Mozilla/5.0 (Windows NT 10.0; Win64; x64) AppleWebKit/537.36 (KHTML, like Gecko) Chrome/115.0.0.0 Safari/537.36" etag="g7PnD0NpqT-zl4YZ8JW1" version="21.6.6" type="device">
  <diagram name="Page-1" id="b520641d-4fe3-3701-9064-5fc419738815">
    <mxGraphModel dx="1434" dy="758" grid="1" gridSize="10" guides="1" tooltips="1" connect="1" arrows="1" fold="1" page="1" pageScale="1" pageWidth="1100" pageHeight="850" background="none" math="0" shadow="0">
      <root>
        <mxCell id="0" />
        <mxCell id="1" parent="0" />
        <mxCell id="GydJiVa6w5yHV-AoEWcU-1" value="&lt;font style=&quot;font-size: 12px;&quot; face=&quot;Times New Roman&quot;&gt;Начало&lt;/font&gt;" style="rounded=1;whiteSpace=wrap;html=1;" vertex="1" parent="1">
          <mxGeometry x="515" y="80" width="70" height="20" as="geometry" />
        </mxCell>
        <mxCell id="GydJiVa6w5yHV-AoEWcU-9" value="" style="edgeStyle=orthogonalEdgeStyle;rounded=0;orthogonalLoop=1;jettySize=auto;html=1;" edge="1" parent="1" source="GydJiVa6w5yHV-AoEWcU-2" target="GydJiVa6w5yHV-AoEWcU-3">
          <mxGeometry relative="1" as="geometry" />
        </mxCell>
        <mxCell id="GydJiVa6w5yHV-AoEWcU-2" value="&lt;font style=&quot;font-size: 12px;&quot; face=&quot;Times New Roman&quot;&gt;Загрузка конфигурационной информации, запуск telegram-бота&lt;/font&gt;" style="rounded=0;whiteSpace=wrap;html=1;" vertex="1" parent="1">
          <mxGeometry x="440" y="120" width="220" height="30" as="geometry" />
        </mxCell>
        <mxCell id="GydJiVa6w5yHV-AoEWcU-3" value="&lt;font style=&quot;font-size: 12px;&quot; face=&quot;Times New Roman&quot;&gt;Пришли&lt;br&gt;новые &lt;br&gt;сообщения ?&lt;/font&gt;" style="rhombus;whiteSpace=wrap;html=1;" vertex="1" parent="1">
          <mxGeometry x="480" y="170" width="140" height="70" as="geometry" />
        </mxCell>
        <mxCell id="GydJiVa6w5yHV-AoEWcU-4" value="" style="endArrow=classic;html=1;rounded=0;" edge="1" parent="1">
          <mxGeometry width="50" height="50" relative="1" as="geometry">
            <mxPoint x="550" y="100" as="sourcePoint" />
            <mxPoint x="550" y="120" as="targetPoint" />
          </mxGeometry>
        </mxCell>
        <mxCell id="GydJiVa6w5yHV-AoEWcU-6" value="" style="endArrow=classic;html=1;rounded=0;" edge="1" parent="1">
          <mxGeometry width="50" height="50" relative="1" as="geometry">
            <mxPoint x="550" y="150" as="sourcePoint" />
            <mxPoint x="550" y="170" as="targetPoint" />
          </mxGeometry>
        </mxCell>
        <mxCell id="GydJiVa6w5yHV-AoEWcU-8" value="&lt;font style=&quot;font-size: 12px;&quot; face=&quot;Times New Roman&quot;&gt;Старт модуля housekeeper&lt;/font&gt;" style="rounded=0;whiteSpace=wrap;html=1;" vertex="1" parent="1">
          <mxGeometry x="650" y="180" width="100" height="50" as="geometry" />
        </mxCell>
        <mxCell id="GydJiVa6w5yHV-AoEWcU-10" value="" style="endArrow=classic;html=1;rounded=0;" edge="1" parent="1">
          <mxGeometry width="50" height="50" relative="1" as="geometry">
            <mxPoint x="699.5" y="230" as="sourcePoint" />
            <mxPoint x="699.5" y="250" as="targetPoint" />
          </mxGeometry>
        </mxCell>
        <mxCell id="GydJiVa6w5yHV-AoEWcU-11" value="" style="endArrow=classic;html=1;rounded=0;entryX=0.5;entryY=0;entryDx=0;entryDy=0;" edge="1" parent="1" target="GydJiVa6w5yHV-AoEWcU-38">
          <mxGeometry width="50" height="50" relative="1" as="geometry">
            <mxPoint x="550" y="240" as="sourcePoint" />
            <mxPoint x="550" y="260" as="targetPoint" />
          </mxGeometry>
        </mxCell>
        <mxCell id="GydJiVa6w5yHV-AoEWcU-12" value="" style="endArrow=classic;html=1;rounded=0;" edge="1" parent="1">
          <mxGeometry width="50" height="50" relative="1" as="geometry">
            <mxPoint x="699.5" y="360" as="sourcePoint" />
            <mxPoint x="700" y="380" as="targetPoint" />
          </mxGeometry>
        </mxCell>
        <mxCell id="GydJiVa6w5yHV-AoEWcU-13" value="" style="endArrow=classic;html=1;rounded=0;" edge="1" parent="1">
          <mxGeometry width="50" height="50" relative="1" as="geometry">
            <mxPoint x="1030" y="200" as="sourcePoint" />
            <mxPoint x="1000" y="200" as="targetPoint" />
          </mxGeometry>
        </mxCell>
        <mxCell id="GydJiVa6w5yHV-AoEWcU-14" value="" style="endArrow=classic;html=1;rounded=0;" edge="1" parent="1">
          <mxGeometry width="50" height="50" relative="1" as="geometry">
            <mxPoint x="480" y="669" as="sourcePoint" />
            <mxPoint x="460" y="669" as="targetPoint" />
          </mxGeometry>
        </mxCell>
        <mxCell id="GydJiVa6w5yHV-AoEWcU-15" value="" style="endArrow=classic;html=1;rounded=0;" edge="1" parent="1">
          <mxGeometry width="50" height="50" relative="1" as="geometry">
            <mxPoint x="480" y="469.5" as="sourcePoint" />
            <mxPoint x="460" y="469.5" as="targetPoint" />
          </mxGeometry>
        </mxCell>
        <mxCell id="GydJiVa6w5yHV-AoEWcU-16" value="" style="endArrow=classic;html=1;rounded=0;" edge="1" parent="1">
          <mxGeometry width="50" height="50" relative="1" as="geometry">
            <mxPoint x="620" y="204.5" as="sourcePoint" />
            <mxPoint x="650" y="204.5" as="targetPoint" />
          </mxGeometry>
        </mxCell>
        <mxCell id="GydJiVa6w5yHV-AoEWcU-17" value="" style="endArrow=classic;html=1;rounded=0;" edge="1" parent="1">
          <mxGeometry width="50" height="50" relative="1" as="geometry">
            <mxPoint x="1010" y="280" as="sourcePoint" />
            <mxPoint x="1040" y="280" as="targetPoint" />
          </mxGeometry>
        </mxCell>
        <mxCell id="GydJiVa6w5yHV-AoEWcU-18" value="" style="endArrow=classic;html=1;rounded=0;" edge="1" parent="1">
          <mxGeometry width="50" height="50" relative="1" as="geometry">
            <mxPoint x="1020" y="290" as="sourcePoint" />
            <mxPoint x="1050" y="290" as="targetPoint" />
          </mxGeometry>
        </mxCell>
        <mxCell id="GydJiVa6w5yHV-AoEWcU-19" value="&lt;font style=&quot;font-size: 12px;&quot; face=&quot;Times New Roman&quot;&gt;&lt;span style=&quot;&quot;&gt;В таблице message&lt;br&gt;&lt;/span&gt;есть неотправленные сообщения ?&lt;/font&gt;" style="rhombus;whiteSpace=wrap;html=1;" vertex="1" parent="1">
          <mxGeometry x="630" y="250" width="140" height="110" as="geometry" />
        </mxCell>
        <mxCell id="GydJiVa6w5yHV-AoEWcU-20" value="&lt;font face=&quot;Times New Roman&quot;&gt;нет&lt;/font&gt;" style="text;html=1;align=center;verticalAlign=middle;resizable=0;points=[];autosize=1;strokeColor=none;fillColor=none;" vertex="1" parent="1">
          <mxGeometry x="160" y="80" width="40" height="30" as="geometry" />
        </mxCell>
        <mxCell id="GydJiVa6w5yHV-AoEWcU-21" value="&lt;font face=&quot;Times New Roman&quot;&gt;нет&lt;/font&gt;" style="text;html=1;align=center;verticalAlign=middle;resizable=0;points=[];autosize=1;strokeColor=none;fillColor=none;" vertex="1" parent="1">
          <mxGeometry x="120" y="110" width="40" height="30" as="geometry" />
        </mxCell>
        <mxCell id="GydJiVa6w5yHV-AoEWcU-22" value="&lt;font face=&quot;Times New Roman&quot;&gt;нет&lt;/font&gt;" style="text;html=1;align=center;verticalAlign=middle;resizable=0;points=[];autosize=1;strokeColor=none;fillColor=none;" vertex="1" parent="1">
          <mxGeometry x="750" y="270" width="40" height="30" as="geometry" />
        </mxCell>
        <mxCell id="GydJiVa6w5yHV-AoEWcU-23" value="&lt;font face=&quot;Times New Roman&quot;&gt;нет&lt;/font&gt;" style="text;html=1;align=center;verticalAlign=middle;resizable=0;points=[];autosize=1;strokeColor=none;fillColor=none;" vertex="1" parent="1">
          <mxGeometry x="600" y="170" width="40" height="30" as="geometry" />
        </mxCell>
        <mxCell id="GydJiVa6w5yHV-AoEWcU-24" value="&lt;font face=&quot;Times New Roman&quot;&gt;да&lt;/font&gt;" style="text;html=1;align=center;verticalAlign=middle;resizable=0;points=[];autosize=1;strokeColor=none;fillColor=none;" vertex="1" parent="1">
          <mxGeometry x="165" y="230" width="30" height="30" as="geometry" />
        </mxCell>
        <mxCell id="GydJiVa6w5yHV-AoEWcU-25" value="&lt;font face=&quot;Times New Roman&quot;&gt;да&lt;/font&gt;" style="text;html=1;align=center;verticalAlign=middle;resizable=0;points=[];autosize=1;strokeColor=none;fillColor=none;" vertex="1" parent="1">
          <mxGeometry x="710" y="340" width="30" height="30" as="geometry" />
        </mxCell>
        <mxCell id="GydJiVa6w5yHV-AoEWcU-26" value="&lt;font face=&quot;Times New Roman&quot;&gt;да&lt;/font&gt;" style="text;html=1;align=center;verticalAlign=middle;resizable=0;points=[];autosize=1;strokeColor=none;fillColor=none;" vertex="1" parent="1">
          <mxGeometry x="460" y="437.5" width="30" height="30" as="geometry" />
        </mxCell>
        <mxCell id="GydJiVa6w5yHV-AoEWcU-27" value="&lt;font face=&quot;Times New Roman&quot;&gt;да&lt;/font&gt;" style="text;html=1;align=center;verticalAlign=middle;resizable=0;points=[];autosize=1;strokeColor=none;fillColor=none;" vertex="1" parent="1">
          <mxGeometry x="515" y="230" width="30" height="30" as="geometry" />
        </mxCell>
        <mxCell id="GydJiVa6w5yHV-AoEWcU-29" value="" style="edgeStyle=elbowEdgeStyle;elbow=horizontal;endArrow=classic;html=1;curved=0;rounded=0;endSize=6;startSize=6;exitX=1;exitY=0.5;exitDx=0;exitDy=0;" edge="1" parent="1" source="GydJiVa6w5yHV-AoEWcU-19">
          <mxGeometry width="50" height="50" relative="1" as="geometry">
            <mxPoint x="770" y="220" as="sourcePoint" />
            <mxPoint x="560" y="160" as="targetPoint" />
            <Array as="points">
              <mxPoint x="790" y="240" />
            </Array>
          </mxGeometry>
        </mxCell>
        <mxCell id="GydJiVa6w5yHV-AoEWcU-30" value="" style="endArrow=classic;html=1;rounded=0;" edge="1" parent="1">
          <mxGeometry width="50" height="50" relative="1" as="geometry">
            <mxPoint x="549" y="330" as="sourcePoint" />
            <mxPoint x="549" y="350" as="targetPoint" />
          </mxGeometry>
        </mxCell>
        <mxCell id="GydJiVa6w5yHV-AoEWcU-31" value="" style="endArrow=classic;html=1;rounded=0;" edge="1" parent="1">
          <mxGeometry width="50" height="50" relative="1" as="geometry">
            <mxPoint x="549" y="410" as="sourcePoint" />
            <mxPoint x="549" y="430" as="targetPoint" />
          </mxGeometry>
        </mxCell>
        <mxCell id="GydJiVa6w5yHV-AoEWcU-33" value="&lt;font face=&quot;Times New Roman&quot;&gt;Отправка сообщений из message согласно telegram_id uid&lt;/font&gt;" style="rounded=0;whiteSpace=wrap;html=1;" vertex="1" parent="1">
          <mxGeometry x="650" y="380" width="100" height="60" as="geometry" />
        </mxCell>
        <mxCell id="GydJiVa6w5yHV-AoEWcU-34" value="" style="edgeStyle=segmentEdgeStyle;endArrow=classic;html=1;curved=0;rounded=0;endSize=6;startSize=6;" edge="1" parent="1">
          <mxGeometry width="50" height="50" relative="1" as="geometry">
            <mxPoint x="750" y="410" as="sourcePoint" />
            <mxPoint x="790" y="310" as="targetPoint" />
            <Array as="points">
              <mxPoint x="790" y="410" />
              <mxPoint x="790" y="360" />
            </Array>
          </mxGeometry>
        </mxCell>
        <mxCell id="GydJiVa6w5yHV-AoEWcU-35" value="" style="edgeStyle=segmentEdgeStyle;endArrow=classic;html=1;curved=0;rounded=0;endSize=6;startSize=6;" edge="1" parent="1">
          <mxGeometry width="50" height="50" relative="1" as="geometry">
            <mxPoint x="950" y="370" as="sourcePoint" />
            <mxPoint x="1000" y="320" as="targetPoint" />
          </mxGeometry>
        </mxCell>
        <mxCell id="GydJiVa6w5yHV-AoEWcU-36" value="" style="edgeStyle=segmentEdgeStyle;endArrow=classic;html=1;curved=0;rounded=0;endSize=6;startSize=6;" edge="1" parent="1">
          <mxGeometry width="50" height="50" relative="1" as="geometry">
            <mxPoint x="980" y="390" as="sourcePoint" />
            <mxPoint x="1030" y="340" as="targetPoint" />
          </mxGeometry>
        </mxCell>
        <mxCell id="GydJiVa6w5yHV-AoEWcU-37" value="" style="edgeStyle=segmentEdgeStyle;endArrow=classic;html=1;curved=0;rounded=0;endSize=6;startSize=6;exitX=1;exitY=0.5;exitDx=0;exitDy=0;" edge="1" parent="1" source="GydJiVa6w5yHV-AoEWcU-51">
          <mxGeometry width="50" height="50" relative="1" as="geometry">
            <mxPoint x="740" y="740" as="sourcePoint" />
            <mxPoint x="790" y="410" as="targetPoint" />
            <Array as="points">
              <mxPoint x="600" y="1060" />
              <mxPoint x="790" y="1060" />
            </Array>
          </mxGeometry>
        </mxCell>
        <mxCell id="GydJiVa6w5yHV-AoEWcU-38" value="&lt;font style=&quot;font-size: 12px;&quot; face=&quot;Times New Roman&quot;&gt;Старт модуля&amp;nbsp; worker (каждое сообщение в отдельном потоке)&lt;/font&gt;" style="rounded=0;whiteSpace=wrap;html=1;" vertex="1" parent="1">
          <mxGeometry x="500" y="270" width="100" height="60" as="geometry" />
        </mxCell>
        <mxCell id="GydJiVa6w5yHV-AoEWcU-39" value="&lt;font style=&quot;font-size: 12px;&quot; face=&quot;Times New Roman&quot;&gt;Парсинг сообщения, формирование структуры Tokens&lt;/font&gt;" style="rounded=0;whiteSpace=wrap;html=1;" vertex="1" parent="1">
          <mxGeometry x="500" y="350" width="100" height="60" as="geometry" />
        </mxCell>
        <mxCell id="GydJiVa6w5yHV-AoEWcU-40" value="&lt;font face=&quot;Times New Roman&quot;&gt;К сообщению&lt;br&gt;&amp;nbsp;прикреплен файл ?&lt;/font&gt;" style="rhombus;whiteSpace=wrap;html=1;" vertex="1" parent="1">
          <mxGeometry x="480" y="430" width="140" height="80" as="geometry" />
        </mxCell>
        <mxCell id="GydJiVa6w5yHV-AoEWcU-43" value="" style="endArrow=classic;html=1;rounded=0;" edge="1" parent="1">
          <mxGeometry width="50" height="50" relative="1" as="geometry">
            <mxPoint x="1040" y="120" as="sourcePoint" />
            <mxPoint x="1040" y="140" as="targetPoint" />
          </mxGeometry>
        </mxCell>
        <mxCell id="GydJiVa6w5yHV-AoEWcU-44" value="" style="endArrow=classic;html=1;rounded=0;" edge="1" parent="1">
          <mxGeometry width="50" height="50" relative="1" as="geometry">
            <mxPoint x="1050" y="130" as="sourcePoint" />
            <mxPoint x="1050" y="150" as="targetPoint" />
          </mxGeometry>
        </mxCell>
        <mxCell id="GydJiVa6w5yHV-AoEWcU-45" value="" style="endArrow=classic;html=1;rounded=0;" edge="1" parent="1">
          <mxGeometry width="50" height="50" relative="1" as="geometry">
            <mxPoint x="550" y="510" as="sourcePoint" />
            <mxPoint x="550" y="530" as="targetPoint" />
          </mxGeometry>
        </mxCell>
        <mxCell id="GydJiVa6w5yHV-AoEWcU-46" value="&lt;font style=&quot;font-size: 12px;&quot; face=&quot;Times New Roman&quot;&gt;Разбор подписи, сохранение файла согласно telegram_id&lt;/font&gt;" style="rounded=0;whiteSpace=wrap;html=1;" vertex="1" parent="1">
          <mxGeometry x="360" y="445" width="100" height="65" as="geometry" />
        </mxCell>
        <mxCell id="GydJiVa6w5yHV-AoEWcU-47" value="&lt;font face=&quot;Times New Roman&quot;&gt;да&lt;/font&gt;" style="text;html=1;align=center;verticalAlign=middle;resizable=0;points=[];autosize=1;strokeColor=none;fillColor=none;" vertex="1" parent="1">
          <mxGeometry x="175" y="240" width="30" height="30" as="geometry" />
        </mxCell>
        <mxCell id="GydJiVa6w5yHV-AoEWcU-48" value="&lt;font face=&quot;Times New Roman&quot;&gt;да&lt;/font&gt;" style="text;html=1;align=center;verticalAlign=middle;resizable=0;points=[];autosize=1;strokeColor=none;fillColor=none;" vertex="1" parent="1">
          <mxGeometry x="185" y="250" width="30" height="30" as="geometry" />
        </mxCell>
        <mxCell id="GydJiVa6w5yHV-AoEWcU-49" value="&lt;font face=&quot;Times New Roman&quot;&gt;да&lt;/font&gt;" style="text;html=1;align=center;verticalAlign=middle;resizable=0;points=[];autosize=1;strokeColor=none;fillColor=none;" vertex="1" parent="1">
          <mxGeometry x="515" y="730" width="30" height="30" as="geometry" />
        </mxCell>
        <mxCell id="GydJiVa6w5yHV-AoEWcU-50" value="&lt;font face=&quot;Times New Roman&quot;&gt;нет&lt;/font&gt;" style="text;html=1;align=center;verticalAlign=middle;resizable=0;points=[];autosize=1;strokeColor=none;fillColor=none;" vertex="1" parent="1">
          <mxGeometry x="510" y="495" width="40" height="30" as="geometry" />
        </mxCell>
        <mxCell id="GydJiVa6w5yHV-AoEWcU-51" value="&lt;font style=&quot;font-size: 12px;&quot; face=&quot;Times New Roman&quot;&gt;Отправка сообщения&lt;/font&gt;" style="rounded=0;whiteSpace=wrap;html=1;" vertex="1" parent="1">
          <mxGeometry x="500" y="1040" width="100" height="50" as="geometry" />
        </mxCell>
        <mxCell id="GydJiVa6w5yHV-AoEWcU-52" value="&lt;font style=&quot;font-size: 12px;&quot; face=&quot;Times New Roman&quot;&gt;Идентификация пользователя в БД&lt;/font&gt;" style="rounded=0;whiteSpace=wrap;html=1;" vertex="1" parent="1">
          <mxGeometry x="500" y="530" width="100" height="30" as="geometry" />
        </mxCell>
        <mxCell id="GydJiVa6w5yHV-AoEWcU-53" value="" style="edgeStyle=segmentEdgeStyle;endArrow=classic;html=1;curved=0;rounded=0;endSize=6;startSize=6;exitX=0.25;exitY=1;exitDx=0;exitDy=0;entryX=0;entryY=0.5;entryDx=0;entryDy=0;" edge="1" parent="1" source="GydJiVa6w5yHV-AoEWcU-46" target="GydJiVa6w5yHV-AoEWcU-52">
          <mxGeometry width="50" height="50" relative="1" as="geometry">
            <mxPoint x="390" y="590" as="sourcePoint" />
            <mxPoint x="440" y="540" as="targetPoint" />
            <Array as="points">
              <mxPoint x="410" y="510" />
              <mxPoint x="410" y="545" />
            </Array>
          </mxGeometry>
        </mxCell>
        <mxCell id="GydJiVa6w5yHV-AoEWcU-54" value="" style="edgeStyle=segmentEdgeStyle;endArrow=classic;html=1;curved=0;rounded=0;endSize=6;startSize=6;entryX=0;entryY=0.5;entryDx=0;entryDy=0;exitX=0.5;exitY=1;exitDx=0;exitDy=0;" edge="1" parent="1" source="GydJiVa6w5yHV-AoEWcU-66" target="GydJiVa6w5yHV-AoEWcU-64">
          <mxGeometry width="50" height="50" relative="1" as="geometry">
            <mxPoint x="405" y="830" as="sourcePoint" />
            <mxPoint x="455" y="780" as="targetPoint" />
            <Array as="points">
              <mxPoint x="410" y="790" />
            </Array>
          </mxGeometry>
        </mxCell>
        <mxCell id="GydJiVa6w5yHV-AoEWcU-67" value="" style="edgeStyle=orthogonalEdgeStyle;rounded=0;orthogonalLoop=1;jettySize=auto;html=1;" edge="1" parent="1" source="GydJiVa6w5yHV-AoEWcU-55" target="GydJiVa6w5yHV-AoEWcU-58">
          <mxGeometry relative="1" as="geometry" />
        </mxCell>
        <mxCell id="GydJiVa6w5yHV-AoEWcU-55" value="&lt;font style=&quot;font-size: 12px;&quot; face=&quot;Times New Roman&quot;&gt;Старт модуля route&lt;/font&gt;" style="rounded=0;whiteSpace=wrap;html=1;" vertex="1" parent="1">
          <mxGeometry x="500" y="580" width="100" height="30" as="geometry" />
        </mxCell>
        <mxCell id="GydJiVa6w5yHV-AoEWcU-56" value="" style="endArrow=classic;html=1;rounded=0;" edge="1" parent="1">
          <mxGeometry width="50" height="50" relative="1" as="geometry">
            <mxPoint x="1060" y="140" as="sourcePoint" />
            <mxPoint x="1060" y="160" as="targetPoint" />
          </mxGeometry>
        </mxCell>
        <mxCell id="GydJiVa6w5yHV-AoEWcU-57" value="" style="endArrow=classic;html=1;rounded=0;" edge="1" parent="1">
          <mxGeometry width="50" height="50" relative="1" as="geometry">
            <mxPoint x="549" y="560" as="sourcePoint" />
            <mxPoint x="549" y="580" as="targetPoint" />
          </mxGeometry>
        </mxCell>
        <mxCell id="GydJiVa6w5yHV-AoEWcU-58" value="&lt;font face=&quot;Times New Roman&quot;&gt;Пользователь идентифицирован ?&lt;/font&gt;" style="rhombus;whiteSpace=wrap;html=1;" vertex="1" parent="1">
          <mxGeometry x="480" y="630" width="140" height="80" as="geometry" />
        </mxCell>
        <mxCell id="GydJiVa6w5yHV-AoEWcU-59" value="&lt;font face=&quot;Times New Roman&quot;&gt;нет&lt;/font&gt;" style="text;html=1;align=center;verticalAlign=middle;resizable=0;points=[];autosize=1;strokeColor=none;fillColor=none;" vertex="1" parent="1">
          <mxGeometry x="455" y="635" width="40" height="30" as="geometry" />
        </mxCell>
        <mxCell id="GydJiVa6w5yHV-AoEWcU-60" value="&lt;font style=&quot;font-size: 12px;&quot; face=&quot;Times New Roman&quot;&gt;Регистрация нового пользователя&lt;/font&gt;" style="rounded=0;whiteSpace=wrap;html=1;" vertex="1" parent="1">
          <mxGeometry x="360" y="650" width="100" height="40" as="geometry" />
        </mxCell>
        <mxCell id="GydJiVa6w5yHV-AoEWcU-61" value="" style="endArrow=classic;html=1;rounded=0;" edge="1" parent="1">
          <mxGeometry width="50" height="50" relative="1" as="geometry">
            <mxPoint x="550" y="610" as="sourcePoint" />
            <mxPoint x="550" y="630" as="targetPoint" />
          </mxGeometry>
        </mxCell>
        <mxCell id="GydJiVa6w5yHV-AoEWcU-63" value="" style="endArrow=classic;html=1;rounded=0;exitX=0.5;exitY=1;exitDx=0;exitDy=0;entryX=0.5;entryY=0;entryDx=0;entryDy=0;" edge="1" parent="1" source="GydJiVa6w5yHV-AoEWcU-58" target="GydJiVa6w5yHV-AoEWcU-64">
          <mxGeometry width="50" height="50" relative="1" as="geometry">
            <mxPoint x="550" y="730" as="sourcePoint" />
            <mxPoint x="550" y="760" as="targetPoint" />
          </mxGeometry>
        </mxCell>
        <mxCell id="GydJiVa6w5yHV-AoEWcU-64" value="&lt;font style=&quot;font-size: 12px;&quot; face=&quot;Times New Roman&quot;&gt;Получение action из Tokens&lt;/font&gt;" style="rounded=0;whiteSpace=wrap;html=1;" vertex="1" parent="1">
          <mxGeometry x="500" y="770" width="100" height="40" as="geometry" />
        </mxCell>
        <mxCell id="GydJiVa6w5yHV-AoEWcU-66" value="&lt;font face=&quot;Times New Roman&quot;&gt;Создание шаблонов отчётов, подписок, time_zone, параметров telegram&lt;/font&gt;" style="rounded=0;whiteSpace=wrap;html=1;" vertex="1" parent="1">
          <mxGeometry x="345" y="710" width="130" height="60" as="geometry" />
        </mxCell>
        <mxCell id="GydJiVa6w5yHV-AoEWcU-68" value="" style="endArrow=classic;html=1;rounded=0;" edge="1" parent="1">
          <mxGeometry width="50" height="50" relative="1" as="geometry">
            <mxPoint x="409.5" y="690" as="sourcePoint" />
            <mxPoint x="409.5" y="710" as="targetPoint" />
          </mxGeometry>
        </mxCell>
      </root>
    </mxGraphModel>
  </diagram>
</mxfile>
